# xmcd
# 
# Track frame offsets:
#   150
#   20310
#   35417
#   48170
#   67092
#   80912
#   97417
#   122207
#   139144
#   157084
#   174699
#   191997
#   207867
#   219514
#   233232
# 
# Disc length: 3278 seconds
# 
# Revision: 2
# Processed by: cddbd v1.5.2PL0 Copyright (c) Steve Scherf et al.
# Submitted via: Synapstar 1.0 
# 
DISCID=e70ccc0f
DTITLE=Various Artist - The Brick 3 SC 7568
DYEAR=1900
DGENRE=Country
TTITLE0=Charlie Daniels Dand - The Legend of Wooley Swamp
TTITLE1=Marty Robbins - Walking Piece of Heaven
TTITLE2=Johnny Cash - A Thing Called Love
TTITLE3=Randy Travis - Promises
TTITLE4=Dwight Yoakam - Honky Tonk Man
TTITLE5=Waylon Jennings - Drinkin' and Dramin'
TTITLE6=Merle Haggard - Going Where the Lonely Go
TTITLE7=Nitty Gritty Dirt Band - Long Hard Road
TTITLE8=Skip Ewing - The Gospel According to Luke
TTITLE9=Cristy Lane - Simple Little Words
TTITLE10=Ricky Van Shelton - Crime of Passion
TTITLE11=Exile - It'll Be Me
TTITLE12=Conway Twitty - Boogie Grass Band
TTITLE13=T.G. Sheppard - Devil in the Bottle
TTITLE14=Janie Fricke - Down to My Last Broken Heart
EXTD=MediaType: Karaoke CD+G Producer: Sound Choice
EXTT0=
EXTT1=
EXTT2=
EXTT3=
EXTT4=
EXTT5=
EXTT6=
EXTT7=
EXTT8=
EXTT9=
EXTT10=
EXTT11=
EXTT12=
EXTT13=
EXTT14=
PLAYORDER=
